<svg xmlns="http://www.w3.org/2000/svg" width="64" height="64" viewBox="0 0 64 64" role="img" aria-labelledby="title desc">
  <title id="title">GuidHeHo</title>
  <desc id="desc">Icône de localisation GuidHeHo en nuances de teal.</desc>
  <defs>
    <linearGradient id="tealGradient" x1="15" y1="7" x2="50" y2="57" gradientUnits="userSpaceOnUse">
      <stop offset="0%" stop-color="#99F6E4"/>
      <stop offset="55%" stop-color="#2DD4BF"/>
      <stop offset="100%" stop-color="#0F766E"/>
    </linearGradient>
  </defs>
  <rect width="64" height="64" rx="16" fill="#0F766E"/>
  <path
    d="M32 7C21.5 7 13 15.5 13 26c0 12.1 11.5 21.3 19 31 7.5-9.7 19-18.9 19-31C51 15.5 42.5 7 32 7Zm0 8.5c6.1 0 11 4.9 11 11s-4.9 11-11 11-11-4.9-11-11 4.9-11 11-11Z"
    fill="#FFFFFF"
  />
  <path d="M24.5 34.5 30.7 20 42 15 35.8 29.5Z" fill="url(#tealGradient)"/>
  <circle cx="32" cy="26.5" r="2.3" fill="#FFFFFF"/>
</svg>
